<svg xmlns="http://www.w3.org/2000/svg" width="900" height="520" viewBox="0 0 900 520"><style>text{font-family:Arial,Helvetica,sans-serif;fill:#222}.title{font-size:26px;font-weight:700}.sub,.label{font-size:13px;fill:#555}</style><rect width="900" height="520" fill="white"/><text x="60" y="48" class="title">Correlação entre variáveis térmicas</text><text x="60" y="74" class="sub">Coeficiente de correlação de Pearson</text><rect x="250" y="130" width="150" height="100" fill="rgb(125,135,255)"/><text x="325" y="188" text-anchor="middle" font-size="20" font-weight="700">1,00</text><rect x="400" y="130" width="150" height="100" fill="rgb(175,185,255)"/><text x="475" y="188" text-anchor="middle" font-size="20" font-weight="700">0,58</text><rect x="550" y="130" width="150" height="100" fill="rgb(207,217,255)"/><text x="625" y="188" text-anchor="middle" font-size="20" font-weight="700">0,32</text><rect x="250" y="230" width="150" height="100" fill="rgb(175,185,255)"/><text x="325" y="288" text-anchor="middle" font-size="20" font-weight="700">0,58</text><rect x="400" y="230" width="150" height="100" fill="rgb(125,135,255)"/><text x="475" y="288" text-anchor="middle" font-size="20" font-weight="700">1,00</text><rect x="550" y="230" width="150" height="100" fill="rgb(200,210,255)"/><text x="625" y="288" text-anchor="middle" font-size="20" font-weight="700">0,37</text><rect x="250" y="330" width="150" height="100" fill="rgb(207,217,255)"/><text x="325" y="388" text-anchor="middle" font-size="20" font-weight="700">0,32</text><rect x="400" y="330" width="150" height="100" fill="rgb(200,210,255)"/><text x="475" y="388" text-anchor="middle" font-size="20" font-weight="700">0,37</text><rect x="550" y="330" width="150" height="100" fill="rgb(125,135,255)"/><text x="625" y="388" text-anchor="middle" font-size="20" font-weight="700">1,00</text><text x="325" y="115" text-anchor="middle" class="label">Brightness</text><text x="475" y="115" text-anchor="middle" class="label">Bright T31</text><text x="625" y="115" text-anchor="middle" class="label">FRP</text><text x="235" y="188" text-anchor="end" class="label">Brightness</text><text x="235" y="288" text-anchor="end" class="label">Bright T31</text><text x="235" y="388" text-anchor="end" class="label">FRP</text><text x="60" y="500" class="label">Brightness e Bright T31 têm a associação linear mais forte entre as variáveis selecionadas.</text></svg>